<svg width="519" height="510" viewBox="0 0 519 510" fill="none" xmlns="http://www.w3.org/2000/svg">
<path d="M204 185.5L0 1L6 54.5L101.5 121.5L117.5 154L10 89C10 89 12 112 21.5 144.5C31 177 43.5 201.5 43.5 201.5L62 237H135.5L165 262H77C77 262 105 306 123.5 316.5C142 327 192.5 319 192.5 319C189.484 332.664 166.107 342.053 149 360L200 357.5L179.5 386L210.5 411L259 510V70L246 82.5L252.5 391L246 411L237.5 391L226.5 289C198.913 266.289 209.274 245.874 204 185.5Z" fill="#FEFEFE"/>
<path d="M314.5 184.5L518.5 0L512.5 53.5L433 120.5L417 153L508.5 88C508.5 88 506.5 111 497 143.5C487.5 176 475 200.5 475 200.5L456.5 236H399L369.5 262H438.5C438.5 262 417 310.5 395 315.5C373 320.5 342 318 342 318C345.016 331.664 352.393 341.053 369.5 359L334.5 356.5L339 385L308 410L259 510V69L272.5 82.5L266 390L272.5 410L281 390L292 289C319.587 266.289 309.226 244.874 314.5 184.5Z" fill="#32383F"/>
</svg>
