<svg width="464" height="439" viewBox="0 0 464 439" fill="none" xmlns="http://www.w3.org/2000/svg">
<path d="M197.5 340L230 439V134.237C158.88 134.54 88.9917 89.6296 0 1L6 54.5L85.5 121.5L101.5 154L10 89C10 89 12 112 21.5 144.5C31 177 30.5 177.5 30.5 177.5L49 213H106.5L115.5 221H53.5L110.5 245.5L163.5 248C160.484 261.664 153.107 271.053 136 289L171 286.5L166.5 315L197.5 340Z" fill="#F4F4F4"/>
<path d="M230 439L263 339L294 314L289.5 285.5L324.5 288C307.393 270.053 300.016 260.664 297 247L350 244.5L407 220H345L354 212H411.5L430 176.5C430 176.5 432.5 176 442 143.5C451.5 111 453.5 88 453.5 88L362 153L378 120.5L457.5 53.5L463.5 0C371.468 89.6701 300.136 133.938 230 134.237V439Z" fill="#32383F"/>
</svg>
