<svg width="487" height="510" viewBox="0 0 487 510" fill="none" xmlns="http://www.w3.org/2000/svg">
<path d="M188 185.5L0 1L6 54.5L85.5 121.5L101.5 154L10 89C10 89 12 112 21.5 144.5C31 177 43.5 201.5 43.5 201.5L62 237H119.5L128.5 245H66.5L123.5 316.5L176.5 319C173.484 332.664 166.107 342.053 149 360L184 357.5L179.5 386L210.5 411L243 510V70L236.5 391L230 411L221.5 391L230 292C202.413 269.289 193.274 245.874 188 185.5Z" fill="#FEFEFE"/>
<path d="M298.5 184.5L486.5 0L480.5 53.5L401 120.5L385 153L476.5 88C476.5 88 474.5 111 465 143.5C455.5 176 443 200.5 443 200.5L424.5 236H367L358 244H420L363 315.5L310 318C313.016 331.664 320.393 341.053 337.5 359L302.5 356.5L307 385L276 410L243 510V69L250 390L256.5 410L265 390L256.5 291C284.087 268.289 293.226 244.874 298.5 184.5Z" fill="#32383F"/>
</svg>
